<mxfile host="app.diagrams.net" modified="2021-01-11T01:52:11.606Z" agent="5.0 (Windows NT 10.0; Win64; x64) AppleWebKit/537.36 (KHTML, like Gecko) Chrome/87.0.4280.141 Safari/537.36" etag="w5cW1L9sj1Q1iaCdyl3v" version="14.1.8" type="github">
  <diagram id="Bzc4wTy2gZQobhB-j3U7" name="第 1 页">
    <mxGraphModel dx="1422" dy="762" grid="1" gridSize="10" guides="1" tooltips="1" connect="1" arrows="1" fold="1" page="1" pageScale="1" pageWidth="827" pageHeight="1169" math="0" shadow="0">
      <root>
        <mxCell id="0" />
        <mxCell id="1" parent="0" />
        <object placeholders="1" c4Name="会运通加油模型" c4Type="DeploymentNode" c4OperationSystem="operationSystem" c4ScalingFactor="scalingFactor" label="&lt;div style=&quot;text-align: left&quot;&gt;%c4Name%&lt;/div&gt;&lt;div style=&quot;text-align: left&quot;&gt;[%c4OperationSystem%]&lt;/div&gt;&lt;div style=&quot;text-align: right&quot;&gt;%c4ScalingFactor%&lt;/div&gt;" id="0haxoA6C2NPIrMcEkiKc-8">
          <mxCell style="rounded=1;whiteSpace=wrap;html=1;labelBackgroundColor=none;fillColor=#ffffff;fontColor=#000000;align=left;arcSize=5;strokeColor=#000000;verticalAlign=bottom;metaEdit=1;metaData={&quot;c4Type&quot;:{&quot;editable&quot;:false}};points=[[0.25,0,0],[0.5,0,0],[0.75,0,0],[1,0.25,0],[1,0.5,0],[1,0.75,0],[0.75,1,0],[0.5,1,0],[0.25,1,0],[0,0.75,0],[0,0.5,0],[0,0.25,0]];" vertex="1" parent="1">
            <mxGeometry x="80" y="20" width="600" height="380" as="geometry" />
          </mxCell>
        </object>
        <mxCell id="0haxoA6C2NPIrMcEkiKc-5" style="edgeStyle=orthogonalEdgeStyle;rounded=0;orthogonalLoop=1;jettySize=auto;html=1;entryX=0.5;entryY=0;entryDx=0;entryDy=0;entryPerimeter=0;" edge="1" parent="1" source="0haxoA6C2NPIrMcEkiKc-1" target="0haxoA6C2NPIrMcEkiKc-3">
          <mxGeometry relative="1" as="geometry" />
        </mxCell>
        <object placeholders="1" c4Name="name" c4Type="Person" c4Description="司机" label="&lt;b&gt;%c4Name%&lt;/b&gt;&lt;div&gt;[%c4Type%]&lt;/div&gt;&lt;br&gt;&lt;div&gt;%c4Description%&lt;/div&gt;" id="0haxoA6C2NPIrMcEkiKc-1">
          <mxCell style="html=1;dashed=0;whitespace=wrap;fillColor=#08427b;strokeColor=none;fontColor=#ffffff;shape=mxgraph.c4.person;align=center;metaEdit=1;points=[[0.5,0,0],[1,0.5,0],[1,0.75,0],[0.75,1,0],[0.5,1,0],[0.25,1,0],[0,0.75,0],[0,0.5,0]];metaData={&quot;c4Type&quot;:{&quot;editable&quot;:false}};" vertex="1" parent="1">
            <mxGeometry x="140" y="110" width="60" height="90" as="geometry" />
          </mxCell>
        </object>
        <object placeholders="1" c4Name="name" c4Type="Software System" c4Description="会运通平台-提供加油/加气服务" label="&lt;b&gt;%c4Name%&lt;/b&gt;&lt;div&gt;[%c4Type%]&lt;/div&gt;&lt;br&gt;&lt;div&gt;%c4Description%&lt;/div&gt;" id="0haxoA6C2NPIrMcEkiKc-2">
          <mxCell style="rounded=1;whiteSpace=wrap;html=1;labelBackgroundColor=none;fillColor=#1168BD;fontColor=#ffffff;align=center;arcSize=10;strokeColor=#1168BD;metaEdit=1;metaData={&quot;c4Type&quot;:{&quot;editable&quot;:false}};points=[[0.25,0,0],[0.5,0,0],[0.75,0,0],[1,0.25,0],[1,0.5,0],[1,0.75,0],[0.75,1,0],[0.5,1,0],[0.25,1,0],[0,0.75,0],[0,0.5,0],[0,0.25,0]];" vertex="1" parent="1">
            <mxGeometry x="460" y="225" width="110" height="90" as="geometry" />
          </mxCell>
        </object>
        <mxCell id="0haxoA6C2NPIrMcEkiKc-6" style="edgeStyle=orthogonalEdgeStyle;rounded=0;orthogonalLoop=1;jettySize=auto;html=1;" edge="1" parent="1" source="0haxoA6C2NPIrMcEkiKc-3" target="0haxoA6C2NPIrMcEkiKc-2">
          <mxGeometry relative="1" as="geometry" />
        </mxCell>
        <object placeholders="1" c4Name="name" c4Type="Software System" c4Description="网络货运平台" label="&lt;b&gt;%c4Name%&lt;/b&gt;&lt;div&gt;[%c4Type%]&lt;/div&gt;&lt;br&gt;&lt;div&gt;%c4Description%&lt;/div&gt;" id="0haxoA6C2NPIrMcEkiKc-3">
          <mxCell style="rounded=1;whiteSpace=wrap;html=1;labelBackgroundColor=none;fillColor=#999999;fontColor=#ffffff;align=center;arcSize=10;strokeColor=#8A8A8A;metaEdit=1;metaData={&quot;c4Type&quot;:{&quot;editable&quot;:false}};points=[[0.25,0,0],[0.5,0,0],[0.75,0,0],[1,0.25,0],[1,0.5,0],[1,0.75,0],[0.75,1,0],[0.5,1,0],[0.25,1,0],[0,0.75,0],[0,0.5,0],[0,0.25,0]];" vertex="1" parent="1">
            <mxGeometry x="250" y="230" width="120" height="80" as="geometry" />
          </mxCell>
        </object>
        <object placeholders="1" c4Name="name" c4Type="ExecutionEnvironment" c4Application="applicationAndVersion" label="&lt;div style=&quot;text-align: left&quot;&gt;%c4Name%&lt;/div&gt;&lt;div style=&quot;text-align: left&quot;&gt;[%c4Application%]&lt;/div&gt;" id="0haxoA6C2NPIrMcEkiKc-9">
          <mxCell style="rounded=1;whiteSpace=wrap;html=1;labelBackgroundColor=none;fillColor=#ffffff;fontColor=#000000;align=left;arcSize=5;strokeColor=#000000;verticalAlign=bottom;metaEdit=1;metaData={&quot;c4Type&quot;:{&quot;editable&quot;:false}};points=[[0.25,0,0],[0.5,0,0],[0.75,0,0],[1,0.25,0],[1,0.5,0],[1,0.75,0],[0.75,1,0],[0.5,1,0],[0.25,1,0],[0,0.75,0],[0,0.5,0],[0,0.25,0]];" vertex="1" parent="1">
            <mxGeometry x="80" y="500" width="890" height="520" as="geometry" />
          </mxCell>
        </object>
        <object placeholders="1" c4Name="name" c4Type="Person" c4Description="司机/后台人员" label="&lt;b&gt;%c4Name%&lt;/b&gt;&lt;div&gt;[%c4Type%]&lt;/div&gt;&lt;br&gt;&lt;div&gt;%c4Description%&lt;/div&gt;" id="0haxoA6C2NPIrMcEkiKc-10">
          <mxCell style="html=1;dashed=0;whitespace=wrap;fillColor=#08427b;strokeColor=none;fontColor=#ffffff;shape=mxgraph.c4.person;align=center;metaEdit=1;points=[[0.5,0,0],[1,0.5,0],[1,0.75,0],[0.75,1,0],[0.5,1,0],[0.25,1,0],[0,0.75,0],[0,0.5,0]];metaData={&quot;c4Type&quot;:{&quot;editable&quot;:false}};" vertex="1" parent="1">
            <mxGeometry x="400" y="520" width="100" height="100" as="geometry" />
          </mxCell>
        </object>
        <object placeholders="1" c4Name="name" c4Type="ExecutionEnvironment" c4Application="applicationAndVersion" label="&lt;div style=&quot;text-align: left&quot;&gt;%c4Name%&lt;/div&gt;&lt;div style=&quot;text-align: left&quot;&gt;[%c4Application%]&lt;/div&gt;" id="0haxoA6C2NPIrMcEkiKc-12">
          <mxCell style="rounded=1;whiteSpace=wrap;html=1;labelBackgroundColor=none;fillColor=#ffffff;fontColor=#000000;align=left;arcSize=5;strokeColor=#000000;verticalAlign=bottom;metaEdit=1;metaData={&quot;c4Type&quot;:{&quot;editable&quot;:false}};points=[[0.25,0,0],[0.5,0,0],[0.75,0,0],[1,0.25,0],[1,0.5,0],[1,0.75,0],[0.75,1,0],[0.5,1,0],[0.25,1,0],[0,0.75,0],[0,0.5,0],[0,0.25,0]];dashed=1;" vertex="1" parent="1">
            <mxGeometry x="110" y="640" width="590" height="320" as="geometry" />
          </mxCell>
        </object>
        <object placeholders="1" c4Type="Database" c4Technology="Technology" c4Description="Description" label="%c4Type%&lt;div&gt;[Container:&amp;nbsp;%c4Technology%]&lt;/div&gt;&lt;br&gt;&lt;div&gt;%c4Description%&lt;/div&gt;" id="0haxoA6C2NPIrMcEkiKc-13">
          <mxCell style="shape=cylinder;whiteSpace=wrap;html=1;boundedLbl=1;rounded=0;labelBackgroundColor=none;fillColor=#438DD5;fontSize=12;fontColor=#ffffff;align=center;strokeColor=#3C7FC0;metaEdit=1;points=[[0.5,0,0],[1,0.25,0],[1,0.5,0],[1,0.75,0],[0.5,1,0],[0,0.75,0],[0,0.5,0],[0,0.25,0]];metaData={&quot;c4Type&quot;:{&quot;editable&quot;:false}};dashed=1;" vertex="1" parent="1">
            <mxGeometry x="140" y="840" width="100" height="90" as="geometry" />
          </mxCell>
        </object>
        <mxCell id="0haxoA6C2NPIrMcEkiKc-20" style="edgeStyle=orthogonalEdgeStyle;rounded=0;orthogonalLoop=1;jettySize=auto;html=1;entryX=1;entryY=0.5;entryDx=0;entryDy=0;entryPerimeter=0;" edge="1" parent="1" source="0haxoA6C2NPIrMcEkiKc-14" target="0haxoA6C2NPIrMcEkiKc-13">
          <mxGeometry relative="1" as="geometry" />
        </mxCell>
        <mxCell id="0haxoA6C2NPIrMcEkiKc-29" style="edgeStyle=orthogonalEdgeStyle;rounded=0;orthogonalLoop=1;jettySize=auto;html=1;entryX=0;entryY=0.5;entryDx=0;entryDy=0;entryPerimeter=0;" edge="1" parent="1" source="0haxoA6C2NPIrMcEkiKc-14" target="0haxoA6C2NPIrMcEkiKc-28">
          <mxGeometry relative="1" as="geometry" />
        </mxCell>
        <object placeholders="1" c4Name="name" c4Type="Software System" c4Description="API Application" label="&lt;b&gt;%c4Name%&lt;/b&gt;&lt;div&gt;[%c4Type%]&lt;/div&gt;&lt;br&gt;&lt;div&gt;%c4Description%&lt;/div&gt;" id="0haxoA6C2NPIrMcEkiKc-14">
          <mxCell style="rounded=1;whiteSpace=wrap;html=1;labelBackgroundColor=none;fillColor=#1168BD;fontColor=#ffffff;align=center;arcSize=10;strokeColor=#1168BD;metaEdit=1;metaData={&quot;c4Type&quot;:{&quot;editable&quot;:false}};points=[[0.25,0,0],[0.5,0,0],[0.75,0,0],[1,0.25,0],[1,0.5,0],[1,0.75,0],[0.75,1,0],[0.5,1,0],[0.25,1,0],[0,0.75,0],[0,0.5,0],[0,0.25,0]];dashed=1;" vertex="1" parent="1">
            <mxGeometry x="380" y="848.75" width="140" height="72.5" as="geometry" />
          </mxCell>
        </object>
        <object placeholders="1" c4Name="name" c4Type="Software System" c4Description="移动端应用" label="&lt;b&gt;%c4Name%&lt;/b&gt;&lt;div&gt;[%c4Type%]&lt;/div&gt;&lt;br&gt;&lt;div&gt;%c4Description%&lt;/div&gt;" id="0haxoA6C2NPIrMcEkiKc-15">
          <mxCell style="rounded=1;whiteSpace=wrap;html=1;labelBackgroundColor=none;fillColor=#1168BD;fontColor=#ffffff;align=center;arcSize=10;strokeColor=#1168BD;metaEdit=1;metaData={&quot;c4Type&quot;:{&quot;editable&quot;:false}};points=[[0.25,0,0],[0.5,0,0],[0.75,0,0],[1,0.25,0],[1,0.5,0],[1,0.75,0],[0.75,1,0],[0.5,1,0],[0.25,1,0],[0,0.75,0],[0,0.5,0],[0,0.25,0]];dashed=1;" vertex="1" parent="1">
            <mxGeometry x="500" y="690" width="146" height="80" as="geometry" />
          </mxCell>
        </object>
        <object placeholders="1" c4Name="name" c4Type="Software System" c4Description="WEB端应用" label="&lt;b&gt;%c4Name%&lt;/b&gt;&lt;div&gt;[%c4Type%]&lt;/div&gt;&lt;br&gt;&lt;div&gt;%c4Description%&lt;/div&gt;" id="0haxoA6C2NPIrMcEkiKc-21">
          <mxCell style="rounded=1;whiteSpace=wrap;html=1;labelBackgroundColor=none;fillColor=#1168BD;fontColor=#ffffff;align=center;arcSize=10;strokeColor=#1168BD;metaEdit=1;metaData={&quot;c4Type&quot;:{&quot;editable&quot;:false}};points=[[0.25,0,0],[0.5,0,0],[0.75,0,0],[1,0.25,0],[1,0.5,0],[1,0.75,0],[0.75,1,0],[0.5,1,0],[0.25,1,0],[0,0.75,0],[0,0.5,0],[0,0.25,0]];dashed=1;" vertex="1" parent="1">
            <mxGeometry x="240" y="690" width="140" height="80" as="geometry" />
          </mxCell>
        </object>
        <mxCell id="0haxoA6C2NPIrMcEkiKc-24" value="" style="endArrow=classic;html=1;exitX=0.671;exitY=0.988;exitDx=0;exitDy=0;exitPerimeter=0;" edge="1" parent="1" source="0haxoA6C2NPIrMcEkiKc-21" target="0haxoA6C2NPIrMcEkiKc-14">
          <mxGeometry width="50" height="50" relative="1" as="geometry">
            <mxPoint x="320" y="860" as="sourcePoint" />
            <mxPoint x="370" y="810" as="targetPoint" />
          </mxGeometry>
        </mxCell>
        <mxCell id="0haxoA6C2NPIrMcEkiKc-25" value="" style="endArrow=classic;html=1;exitX=0.438;exitY=1.013;exitDx=0;exitDy=0;exitPerimeter=0;" edge="1" parent="1" source="0haxoA6C2NPIrMcEkiKc-15" target="0haxoA6C2NPIrMcEkiKc-14">
          <mxGeometry width="50" height="50" relative="1" as="geometry">
            <mxPoint x="620" y="850" as="sourcePoint" />
            <mxPoint x="670" y="800" as="targetPoint" />
          </mxGeometry>
        </mxCell>
        <mxCell id="0haxoA6C2NPIrMcEkiKc-26" value="" style="endArrow=classic;html=1;exitX=0.25;exitY=1;exitDx=0;exitDy=0;exitPerimeter=0;" edge="1" parent="1" source="0haxoA6C2NPIrMcEkiKc-10" target="0haxoA6C2NPIrMcEkiKc-21">
          <mxGeometry width="50" height="50" relative="1" as="geometry">
            <mxPoint x="560" y="600" as="sourcePoint" />
            <mxPoint x="610" y="550" as="targetPoint" />
          </mxGeometry>
        </mxCell>
        <mxCell id="0haxoA6C2NPIrMcEkiKc-27" value="" style="endArrow=classic;html=1;exitX=0.75;exitY=1;exitDx=0;exitDy=0;exitPerimeter=0;" edge="1" parent="1" source="0haxoA6C2NPIrMcEkiKc-10" target="0haxoA6C2NPIrMcEkiKc-15">
          <mxGeometry width="50" height="50" relative="1" as="geometry">
            <mxPoint x="400" y="620" as="sourcePoint" />
            <mxPoint x="346.66666666666674" y="700" as="targetPoint" />
          </mxGeometry>
        </mxCell>
        <object placeholders="1" c4Name="name" c4Type="Software System" c4Description="惠运通三方服务对接" label="&lt;b&gt;%c4Name%&lt;/b&gt;&lt;div&gt;[%c4Type%]&lt;/div&gt;&lt;br&gt;&lt;div&gt;%c4Description%&lt;/div&gt;" id="0haxoA6C2NPIrMcEkiKc-28">
          <mxCell style="rounded=1;whiteSpace=wrap;html=1;labelBackgroundColor=none;fillColor=#999999;fontColor=#ffffff;align=center;arcSize=10;strokeColor=#8A8A8A;metaEdit=1;metaData={&quot;c4Type&quot;:{&quot;editable&quot;:false}};points=[[0.25,0,0],[0.5,0,0],[0.75,0,0],[1,0.25,0],[1,0.5,0],[1,0.75,0],[0.75,1,0],[0.5,1,0],[0.25,1,0],[0,0.75,0],[0,0.5,0],[0,0.25,0]];dashed=1;" vertex="1" parent="1">
            <mxGeometry x="770" y="840" width="130" height="90" as="geometry" />
          </mxCell>
        </object>
      </root>
    </mxGraphModel>
  </diagram>
</mxfile>
